<?xml version="1.0" encoding="UTF-8"?>
<svg version="1.1" xmlns="http://www.w3.org/2000/svg" width="512" height="512">
<path d="M0 0 C130.68 0 261.36 0 396 0 C396 164.67 396 329.34 396 499 C265.32 499 134.64 499 0 499 C0 334.33 0 169.66 0 0 Z " fill="#4D5680" transform="translate(58,6)"/>
<path d="M0 0 C44.55 0 89.1 0 135 0 C135 164.67 135 329.34 135 499 C90.45 499 45.9 499 0 499 C0 334.33 0 169.66 0 0 Z " fill="#80A2FE" transform="translate(58,6)"/>
<path d="M0 0 C16.55433008 13.09317716 29.38520431 31.95753645 31.90234375 53.30078125 C33.44911688 75.77732831 30.47554569 97.00540339 16.27734375 115.37109375 C14.92760964 116.91439438 13.55201103 118.43543136 12.15234375 119.93359375 C11.415 120.76117188 10.67765625 121.58875 9.91796875 122.44140625 C-4.14310663 137.46745739 -23.26429744 146.47898372 -43.86328125 147.26953125 C-67.54327635 147.61508753 -87.15700733 142.28629443 -104.84765625 125.93359375 C-105.50121094 125.34835938 -106.15476562 124.763125 -106.828125 124.16015625 C-120.57768034 111.23011083 -130.17451675 90.93844923 -131.22265625 72.01953125 C-131.73917969 52.25416295 -127.61355088 34.05537278 -115.84765625 17.93359375 C-115.24179687 17.0828125 -114.6359375 16.23203125 -114.01171875 15.35546875 C-87.07070416 -20.49257515 -35.54016275 -25.78977516 0 0 Z " fill="#F2F4F8" transform="translate(372.84765625,55.06640625)"/>
<path d="M0 0 C1.20319885 -0.00761353 2.40639771 -0.01522705 3.64605713 -0.02307129 C6.18426446 -0.0338433 8.72251601 -0.03673725 11.26074219 -0.03222656 C15.1146974 -0.03125653 18.96664535 -0.07286984 22.8203125 -0.1171875 C25.29687089 -0.122397 27.77343613 -0.12508265 30.25 -0.125 C31.38789978 -0.14139526 32.52579956 -0.15779053 33.69818115 -0.17468262 C44.31101256 -0.08444709 53.85862642 3.00768261 61.640625 10.44921875 C66.42014667 15.9648721 70.05395453 22.25072947 71.390625 29.46875 C71.51953125 30.11585938 71.6484375 30.76296875 71.78125 31.4296875 C72.15368577 34.66987873 72.01846243 36.63462312 70.0234375 39.28515625 C51.91879132 56.0751497 28.93680604 59.52870888 5.30712891 58.65527344 C-9.36076115 57.71719642 -25.75383054 50.24671668 -36.93359375 40.6640625 C-39.55438012 37.23077126 -39.56189164 34.4030346 -39.1328125 30.19921875 C-37.01749299 19.16482816 -31.92243476 11.5436213 -22.89453125 4.7578125 C-15.25785015 0.44994111 -8.62829839 0.00151648 0 0 Z " fill="#FED731" transform="translate(307.609375,143.53125)"/>
<path d="M0 0 C1.23715117 -0.00935994 1.23715117 -0.00935994 2.49929529 -0.01890898 C5.26703673 -0.03488257 8.0339028 -0.02221781 10.801651 -0.00964355 C12.78425613 -0.01506278 14.76685723 -0.02218431 16.74945068 -0.03088379 C22.13790755 -0.04914495 27.52605865 -0.04203771 32.91452098 -0.02936745 C38.54964073 -0.01925286 44.18473398 -0.02862897 49.81985474 -0.03491211 C59.28486337 -0.0421936 68.74974724 -0.03258824 78.21473694 -0.0135498 C89.16090014 0.00821355 100.10676528 0.00117339 111.05292124 -0.02085543 C120.44580957 -0.03900258 129.83860812 -0.04157089 139.23150831 -0.03110075 C144.84370882 -0.02486127 150.45576921 -0.02404261 156.06796074 -0.0372467 C161.34493916 -0.04879433 166.62153308 -0.04079913 171.89846992 -0.01766968 C173.83627305 -0.01237653 175.77410849 -0.01390668 177.7118988 -0.02272034 C180.35532704 -0.03363567 182.99751983 -0.0199611 185.64086914 0 C186.40954801 -0.00892289 187.17822688 -0.01784577 187.97019905 -0.02703905 C191.60420805 0.02626495 193.75456021 0.43021524 196.89521122 2.31702423 C198.88392639 4.50793457 198.88392639 4.50793457 198.94642639 8.07043457 C197.75232425 11.93370621 197.35913694 12.64398878 193.88392639 14.50793457 C191.10095971 14.79904796 188.54320075 14.91728465 185.76112366 14.89561462 C184.52291414 14.90369293 184.52291414 14.90369293 183.25969028 14.91193444 C180.48975338 14.92625821 177.72029139 14.91909948 174.95033264 14.9119873 C172.96610631 14.91768852 170.98188326 14.92465181 168.99766541 14.93278503 C163.60519656 14.95075788 158.21289006 14.94954044 152.82040024 14.94384265 C148.32212045 14.94075712 143.82387213 14.94683608 139.32559681 14.9528814 C128.71643276 14.96693823 118.10734921 14.96535536 107.4981842 14.95397949 C96.54405804 14.94249348 85.59017657 14.95657951 74.63608265 14.98337597 C65.23812285 15.00550709 55.84024 15.01217629 46.44225597 15.00629956 C40.82616506 15.00292302 35.21023106 15.00539138 29.59416199 15.02255058 C24.31474032 15.03797669 19.03568226 15.03411242 13.75627518 15.01524544 C11.81643368 15.01154769 9.87656549 15.01470234 7.9367485 15.02513123 C5.292985 15.03826185 2.65043941 15.02686481 0.00672913 15.00914001 C-1.15065844 15.02354752 -1.15065844 15.02354752 -2.33142757 15.0382461 C-5.81390145 14.9900499 -7.76286883 14.77091361 -10.59249878 12.66410923 C-12.67456824 9.71754873 -12.70482743 8.04045751 -12.11607361 4.50793457 C-8.84761977 -0.11542764 -5.26447174 -0.06093359 0 0 Z " fill="#7FA2FE" transform="translate(230.11607360839844,303.4920654296875)"/>
<path d="M0 0 C1.23715117 -0.00935994 1.23715117 -0.00935994 2.49929529 -0.01890898 C5.26703673 -0.03488257 8.0339028 -0.02221781 10.801651 -0.00964355 C12.78425613 -0.01506278 14.76685723 -0.02218431 16.74945068 -0.03088379 C22.13790755 -0.04914495 27.52605865 -0.04203771 32.91452098 -0.02936745 C38.54964073 -0.01925286 44.18473398 -0.02862897 49.81985474 -0.03491211 C59.28486337 -0.0421936 68.74974724 -0.03258824 78.21473694 -0.0135498 C89.16090014 0.00821355 100.10676528 0.00117339 111.05292124 -0.02085543 C120.44580957 -0.03900258 129.83860812 -0.04157089 139.23150831 -0.03110075 C144.84370882 -0.02486127 150.45576921 -0.02404261 156.06796074 -0.0372467 C161.34493916 -0.04879433 166.62153308 -0.04079913 171.89846992 -0.01766968 C173.83627305 -0.01237653 175.77410849 -0.01390668 177.7118988 -0.02272034 C180.35532704 -0.03363567 182.99751983 -0.0199611 185.64086914 0 C186.40954801 -0.00892289 187.17822688 -0.01784577 187.97019905 -0.02703905 C191.60420805 0.02626495 193.75456021 0.43021524 196.89521122 2.31702423 C198.88392639 4.50793457 198.88392639 4.50793457 198.94642639 8.07043457 C197.75232425 11.93370621 197.35913694 12.64398878 193.88392639 14.50793457 C191.10095971 14.79904796 188.54320075 14.91728465 185.76112366 14.89561462 C184.52291414 14.90369293 184.52291414 14.90369293 183.25969028 14.91193444 C180.48975338 14.92625821 177.72029139 14.91909948 174.95033264 14.9119873 C172.96610631 14.91768852 170.98188326 14.92465181 168.99766541 14.93278503 C163.60519656 14.95075788 158.21289006 14.94954044 152.82040024 14.94384265 C148.32212045 14.94075712 143.82387213 14.94683608 139.32559681 14.9528814 C128.71643276 14.96693823 118.10734921 14.96535536 107.4981842 14.95397949 C96.54405804 14.94249348 85.59017657 14.95657951 74.63608265 14.98337597 C65.23812285 15.00550709 55.84024 15.01217629 46.44225597 15.00629956 C40.82616506 15.00292302 35.21023106 15.00539138 29.59416199 15.02255058 C24.31474032 15.03797669 19.03568226 15.03411242 13.75627518 15.01524544 C11.81643368 15.01154769 9.87656549 15.01470234 7.9367485 15.02513123 C5.292985 15.03826185 2.65043941 15.02686481 0.00672913 15.00914001 C-1.15065844 15.02354752 -1.15065844 15.02354752 -2.33142757 15.0382461 C-5.81390145 14.9900499 -7.76286883 14.77091361 -10.59249878 12.66410923 C-12.67456824 9.71754873 -12.70482743 8.04045751 -12.11607361 4.50793457 C-8.84761977 -0.11542764 -5.26447174 -0.06093359 0 0 Z " fill="#7FA2FE" transform="translate(230.11607360839844,266.4920654296875)"/>
<path d="M0 0 C1.23715117 -0.00935994 1.23715117 -0.00935994 2.49929529 -0.01890898 C5.26703673 -0.03488257 8.0339028 -0.02221781 10.801651 -0.00964355 C12.78425613 -0.01506278 14.76685723 -0.02218431 16.74945068 -0.03088379 C22.13790755 -0.04914495 27.52605865 -0.04203771 32.91452098 -0.02936745 C38.54964073 -0.01925286 44.18473398 -0.02862897 49.81985474 -0.03491211 C59.28486337 -0.0421936 68.74974724 -0.03258824 78.21473694 -0.0135498 C89.16090014 0.00821355 100.10676528 0.00117339 111.05292124 -0.02085543 C120.44580957 -0.03900258 129.83860812 -0.04157089 139.23150831 -0.03110075 C144.84370882 -0.02486127 150.45576921 -0.02404261 156.06796074 -0.0372467 C161.34493916 -0.04879433 166.62153308 -0.04079913 171.89846992 -0.01766968 C173.83627305 -0.01237653 175.77410849 -0.01390668 177.7118988 -0.02272034 C180.35532704 -0.03363567 182.99751983 -0.0199611 185.64086914 0 C186.40954801 -0.00892289 187.17822688 -0.01784577 187.97019905 -0.02703905 C191.60420805 0.02626495 193.75456021 0.43021524 196.89521122 2.31702423 C198.88392639 4.50793457 198.88392639 4.50793457 198.94642639 8.07043457 C197.75232425 11.93370621 197.35913694 12.64398878 193.88392639 14.50793457 C191.10095971 14.79904796 188.54320075 14.91728465 185.76112366 14.89561462 C184.52291414 14.90369293 184.52291414 14.90369293 183.25969028 14.91193444 C180.48975338 14.92625821 177.72029139 14.91909948 174.95033264 14.9119873 C172.96610631 14.91768852 170.98188326 14.92465181 168.99766541 14.93278503 C163.60519656 14.95075788 158.21289006 14.94954044 152.82040024 14.94384265 C148.32212045 14.94075712 143.82387213 14.94683608 139.32559681 14.9528814 C128.71643276 14.96693823 118.10734921 14.96535536 107.4981842 14.95397949 C96.54405804 14.94249348 85.59017657 14.95657951 74.63608265 14.98337597 C65.23812285 15.00550709 55.84024 15.01217629 46.44225597 15.00629956 C40.82616506 15.00292302 35.21023106 15.00539138 29.59416199 15.02255058 C24.31474032 15.03797669 19.03568226 15.03411242 13.75627518 15.01524544 C11.81643368 15.01154769 9.87656549 15.01470234 7.9367485 15.02513123 C5.292985 15.03826185 2.65043941 15.02686481 0.00672913 15.00914001 C-1.15065844 15.02354752 -1.15065844 15.02354752 -2.33142757 15.0382461 C-5.81390145 14.9900499 -7.76286883 14.77091361 -10.59249878 12.66410923 C-12.67456824 9.71754873 -12.70482743 8.04045751 -12.11607361 4.50793457 C-8.84761977 -0.11542764 -5.26447174 -0.06093359 0 0 Z " fill="#7FA2FE" transform="translate(230.11607360839844,229.4920654296875)"/>
<path d="M0 0 C1.81692856 -0.01908669 1.81692856 -0.01908669 3.67056274 -0.03855896 C5.0045796 -0.03237717 6.33859454 -0.02577119 7.67260742 -0.01878357 C9.08394268 -0.02584438 10.49527037 -0.03459009 11.90658569 -0.04489136 C15.73307388 -0.06737594 19.55914828 -0.06444821 23.38567734 -0.05556989 C26.58161758 -0.05045706 29.77748026 -0.05775483 32.97341251 -0.06504196 C40.51286166 -0.08203758 48.05210838 -0.07847812 55.59155273 -0.06175232 C63.3676267 -0.0448246 71.14313956 -0.06067483 78.91915226 -0.0929752 C85.59872369 -0.11966913 92.27812042 -0.12694788 98.95773983 -0.11846012 C102.94579969 -0.11353106 106.93352183 -0.11574519 110.92153931 -0.13624763 C114.67120878 -0.15460246 118.42007075 -0.14864975 122.16969681 -0.12404823 C123.54472068 -0.11903985 124.91980607 -0.12253105 126.29478073 -0.13519669 C137.9771006 -0.23428643 137.9771006 -0.23428643 141.32617188 2.82363892 C142.96557617 5.5146637 142.96557617 5.5146637 142.90307617 9.2021637 C141.96557617 12.5146637 141.96557617 12.5146637 139.96557617 14.5146637 C137.4164896 14.76913929 137.4164896 14.76913929 134.12660217 14.77536011 C132.88289352 14.78244492 131.63918488 14.78952972 130.35778809 14.79682922 C128.97192347 14.79453519 127.58605919 14.79202546 126.20019531 14.7893219 C124.74665565 14.79366713 123.29311829 14.79884964 121.83958435 14.80480957 C117.88505633 14.81823151 113.93062369 14.81877469 109.97607732 14.81624627 C106.67822128 14.81517868 103.38038471 14.82005449 100.08253282 14.82485169 C92.30403059 14.83595801 84.52557664 14.83637803 76.74707031 14.83033752 C68.71497349 14.82429611 60.68305177 14.83661036 52.65098482 14.85790759 C45.76177128 14.87550476 38.87261356 14.88152793 31.98337835 14.87826985 C27.86574798 14.87645377 23.74824249 14.8791253 19.6306324 14.89298439 C15.75890432 14.90552753 11.8874498 14.90365226 8.01572609 14.8905735 C6.59309549 14.88820043 5.17044585 14.89096846 3.74783707 14.89919662 C1.8090942 14.90960314 -0.12972608 14.89979494 -2.06846619 14.8888855 C-3.15450606 14.88905324 -4.24054594 14.88922098 -5.35949612 14.88939381 C-8.03442383 14.5146637 -8.03442383 14.5146637 -9.87604618 13.20611858 C-11.87843506 10.28224443 -11.51303247 7.92475024 -11.03442383 4.5146637 C-7.46876442 0.88876618 -5.02552522 0.01342427 0 0 Z " fill="#7EA0FA" transform="translate(286.034423828125,428.48533630371094)"/>
<path d="M0 0 C0.94147888 -0.00960754 1.88295776 -0.01921509 2.85296631 -0.02911377 C3.87376282 -0.03336365 4.89455933 -0.03761353 5.94628906 -0.04199219 C6.99463928 -0.04769226 8.0429895 -0.05339233 9.12310791 -0.05926514 C11.34573352 -0.06872452 13.56837322 -0.07525283 15.79101562 -0.07910156 C19.18417036 -0.08878799 22.57671458 -0.11979511 25.96972656 -0.15136719 C28.12857713 -0.15789908 30.28743203 -0.16314882 32.44628906 -0.16699219 C33.96533844 -0.18551239 33.96533844 -0.18551239 35.51507568 -0.20440674 C42.58034417 -0.18218282 46.91112384 0.8370795 52.27441406 5.72363281 C55.37154462 9.75290946 55.72171994 14.20120233 55.46191406 19.16113281 C53.81879438 25.05703285 51.30116238 27.73333192 46.46191406 31.16113281 C43.63314466 32.10405595 41.78048233 32.31311288 38.84204102 32.36987305 C37.90709305 32.38916367 36.97214508 32.40845428 36.00886536 32.42832947 C31.72836337 32.48626326 27.4480263 32.53536058 23.16723633 32.56616211 C20.91415056 32.58772507 18.66114818 32.62180735 16.40844727 32.66870117 C13.15115136 32.73585945 9.89558687 32.76318904 6.63769531 32.78222656 C5.63845535 32.81005722 4.63921539 32.83788788 3.60969543 32.86656189 C-2.62439669 32.8483686 -6.18307944 31.75396101 -10.985672 27.72645569 C-14.57960477 24.10263795 -15.70029771 20.64134716 -15.97558594 15.66113281 C-15.80939271 11.16636155 -14.5066665 8.61110482 -11.53808594 5.16113281 C-7.5694268 1.66493309 -5.25627375 0.0432316 0 0 Z " fill="#F2F4F9" transform="translate(105.5380859375,440.8388671875)"/>
<path d="M0 0 C0.94396133 -0.0038269 1.88792267 -0.00765381 2.86048889 -0.01159668 C4.84637526 -0.01430483 6.83229797 -0.00702093 8.81811523 0.00976562 C11.8359439 0.03116694 14.8513857 0.00993878 17.86914062 -0.015625 C19.80859894 -0.01298106 21.74805579 -0.00785472 23.6875 0 C24.57839828 -0.00809692 25.46929657 -0.01619385 26.38719177 -0.02453613 C32.51063882 0.06582821 37.68732769 1.20222974 42.91015625 4.53125 C46.37662178 8.27072217 48.19014232 11.90912016 48.53515625 17.03125 C48.22858483 21.95342452 46.34757638 25.99790186 42.91015625 29.53125 C37.32479725 33.21331063 32.05475194 32.98300231 25.59765625 32.96484375 C24.51057373 32.9700856 23.42349121 32.97532745 22.3034668 32.98072815 C20.0105881 32.9871368 17.71767647 32.98582639 15.42480469 32.97729492 C11.92192988 32.96877862 8.42068291 32.99757474 4.91796875 33.02929688 C2.6861984 33.0309089 0.45442518 33.03033132 -1.77734375 33.02734375 C-2.82124268 33.03857773 -3.8651416 33.04981171 -4.94067383 33.06138611 C-10.97571341 33.00368803 -14.51768269 32.59178624 -19.08984375 28.53125 C-22.45903899 24.00943534 -23.83108744 20.47258226 -23.53125 14.8046875 C-22.73928744 10.72572991 -21.06783887 7.42859109 -18.08984375 4.53125 C-12.16657224 0.6491511 -6.96832393 -0.063188 0 0 Z " fill="#FCD733" transform="translate(113.08984375,298.46875)"/>
<path d="M0 0 C1.3422464 -0.01913956 1.3422464 -0.01913956 2.71160889 -0.03866577 C4.15228729 -0.04200424 4.15228729 -0.04200424 5.62207031 -0.04541016 C6.6184552 -0.05206696 7.61484009 -0.05872375 8.64141846 -0.06558228 C10.74953365 -0.07570258 12.85768085 -0.08039949 14.96582031 -0.08007812 C18.17469864 -0.08443801 21.38218646 -0.12072816 24.59082031 -0.15869141 C26.64289896 -0.1645625 28.69498412 -0.16852993 30.74707031 -0.17041016 C31.69942566 -0.18478119 32.65178101 -0.19915222 33.63299561 -0.21395874 C39.73962434 -0.17255029 44.3564027 0.80480843 49.45019531 4.29052734 C53.63073385 8.57825918 54.29361653 11.34895042 54.76269531 17.16552734 C54.69786922 21.52508185 53.27696428 23.92896424 50.45019531 27.29052734 C46.30981722 31.02696611 43.33753806 32.40167238 37.79858398 32.4675293 C36.85718063 32.48036453 35.91577728 32.49319977 34.94584656 32.50642395 C33.93021133 32.51381088 32.91457611 32.52119781 31.86816406 32.52880859 C30.82122879 32.53688034 29.77429352 32.54495209 28.69563293 32.55326843 C26.47899021 32.56710253 24.26232624 32.5778277 22.0456543 32.58569336 C18.66120934 32.60290774 15.27774084 32.64680106 11.89355469 32.69091797 C9.73926499 32.70104498 7.584967 32.70956106 5.43066406 32.71630859 C4.42110153 32.73381668 3.411539 32.75132477 2.37138367 32.7693634 C-3.61563933 32.75094277 -6.98083489 32.25598837 -11.54980469 28.29052734 C-14.89205554 24.58695207 -16.41240026 22.07678492 -16.79980469 17.04052734 C-16.43605634 11.5843022 -15.11754705 7.77787266 -11.11230469 3.97802734 C-7.28729003 1.45911525 -4.62956076 0.0450078 0 0 Z " fill="#7FEBC6" transform="translate(106.5498046875,369.70947265625)"/>
<path d="M0 0 C0.99818253 -0.00990463 1.99636505 -0.01980927 3.02479553 -0.03001404 C4.11889236 -0.02551239 5.2129892 -0.02101074 6.34024048 -0.01637268 C8.06986275 -0.02666756 8.06986275 -0.02666756 9.83442688 -0.03717041 C13.65761526 -0.05551671 17.4803963 -0.05158926 21.30361938 -0.0459137 C23.28541939 -0.04932042 25.2672196 -0.05273422 27.24901736 -0.05726677 C33.48243244 -0.07132049 39.7157105 -0.06974455 45.9491272 -0.05836487 C52.37658912 -0.0468901 58.80363348 -0.06094613 65.23104036 -0.08776134 C70.75133303 -0.10992852 76.27149474 -0.11655326 81.79182875 -0.11068493 C85.08797425 -0.1073156 88.38379303 -0.11143588 91.67991257 -0.12693596 C95.3573701 -0.14179019 99.03390581 -0.13120801 102.71133423 -0.11402893 C103.8013826 -0.1236969 104.89143097 -0.13336487 106.01451111 -0.14332581 C110.53299192 -0.09905964 113.37746226 -0.05035032 117.36651611 2.19638062 C119.15518188 4.38768005 119.15518188 4.38768005 119.21768188 7.95018005 C118.04189147 11.75420788 117.48604089 12.44376842 114.15518188 14.38768005 C111.81569672 14.7707901 111.81569672 14.7707901 109.18338013 14.78208923 C107.6818766 14.79911392 107.6818766 14.79911392 106.15003967 14.81648254 C105.05796707 14.81355194 103.96589447 14.81062134 102.84072876 14.80760193 C101.68589493 14.81607147 100.5310611 14.82454102 99.3412323 14.83326721 C95.51868725 14.85669284 91.69654333 14.85765809 87.87393188 14.85643005 C85.89148291 14.86173426 83.90903379 14.86704456 81.92658758 14.87329721 C75.69464274 14.89252541 69.46283185 14.89541688 63.23086548 14.88865662 C56.80272244 14.88201195 50.37515266 14.90489776 43.94712591 14.94197035 C38.42597568 14.97265669 32.90501 14.98402871 27.38377619 14.98013353 C24.08703382 14.97806529 20.79083813 14.98578547 17.49415588 15.00802612 C13.81884912 15.03009404 10.14493591 15.02057436 6.46963501 15.00291443 C4.83152611 15.0228093 4.83152611 15.0228093 3.1603241 15.04310608 C-4.18159769 14.96089434 -4.18159769 14.96089434 -7.55587769 12.04454041 C-9.21315813 8.62843008 -9.01230985 6.96798804 -7.84481812 3.38768005 C-5.50048781 0.29725005 -3.79990152 0.01063399 0 0 Z " fill="#7FA2FE" transform="translate(309.8448181152344,465.61231994628906)"/>
<path d="M0 0 C5.43910517 3.05067576 9.32346193 7.75672748 11.8125 13.4375 C12.24355795 16.51068959 12.18272258 19.58695729 12.1875 22.6875 C12.21199219 23.50863281 12.23648438 24.32976562 12.26171875 25.17578125 C12.29445031 32.06031957 10.59301123 37.21534158 6.06640625 42.4609375 C0.55868267 46.86202839 -3.68343634 48.94851592 -10.8515625 48.74609375 C-17.50972323 47.86650395 -21.82982387 44.29609636 -25.9609375 39.21875 C-29.50951743 34.06539826 -29.58488431 29.80291336 -29.625 23.6875 C-29.65787109 22.81867188 -29.69074219 21.94984375 -29.72460938 21.0546875 C-29.77804835 14.58371399 -28.32252884 10.43346611 -24.1875 5.4375 C-22.0546875 3.37890625 -22.0546875 3.37890625 -20.0625 2 C-19.39992188 1.52691406 -18.73734375 1.05382812 -18.0546875 0.56640625 C-12.53759117 -2.76924404 -5.77926942 -2.60067124 0 0 Z " fill="#FED9B3" transform="translate(332.1875,69.5625)"/>
<path d="M0 0 C0.85514191 -0.01134979 1.71028381 -0.02269958 2.59133911 -0.03439331 C3.99404053 -0.02999741 3.99404053 -0.02999741 5.42507935 -0.0255127 C6.41235016 -0.03398224 7.39962097 -0.04245178 8.41680908 -0.05117798 C11.68808798 -0.07462175 14.95889849 -0.07556828 18.23025513 -0.07434082 C20.50085642 -0.08143849 22.77145591 -0.0891369 25.04205322 -0.09741211 C29.80519595 -0.11087431 34.56817289 -0.11241809 39.33132935 -0.10656738 C45.43716992 -0.10067313 51.54221486 -0.13124423 57.64790154 -0.17168427 C62.33878876 -0.19752802 67.02948367 -0.2004416 71.72043228 -0.1967926 C73.97151818 -0.1984873 76.22261263 -0.20816327 78.473629 -0.22593689 C81.6220502 -0.24805757 84.76885146 -0.23845845 87.91726685 -0.2208252 C89.31389557 -0.24072006 89.31389557 -0.24072006 90.73873901 -0.26101685 C95.2550809 -0.2022066 97.20415319 -0.05439366 100.91436768 2.73754883 C102.80056763 5.39440918 102.80056763 5.39440918 102.86306763 8.51940918 C101.58765005 11.9705391 101.0358351 12.68142869 97.80056763 14.39440918 C94.55187373 14.85276216 91.32318348 14.82462157 88.04666138 14.81433105 C87.05763824 14.8228006 86.06861511 14.83127014 85.04962158 14.83999634 C81.77897297 14.86340404 78.50879367 14.86438767 75.23806763 14.86315918 C72.96649995 14.87025776 70.69493407 14.87795631 68.42337036 14.88623047 C63.6620078 14.89968347 58.90081108 14.90124 54.13943481 14.89538574 C48.03240417 14.88948484 41.92616719 14.92009438 35.81929016 14.96050262 C31.12844542 14.98632625 26.43779323 14.98926194 21.74688721 14.98561096 C19.4949748 14.98730679 17.24305393 14.99699347 14.99121094 15.01475525 C11.84508791 15.03684196 8.7005904 15.02729515 5.55447388 15.00964355 C4.62136383 15.0229068 3.68825378 15.03617004 2.72686768 15.04983521 C-3.55998587 14.9677009 -3.55998587 14.9677009 -6.81295776 12.05126953 C-8.19943237 9.39440918 -8.19943237 9.39440918 -8.13693237 6.26940918 C-6.64370394 1.69017531 -4.83297328 0.02425657 0 0 Z " fill="#7FA2FE" transform="translate(276.1994323730469,340.6055908203125)"/>
<path d="M0 0 C0.72421646 -0.00700928 1.44843292 -0.01401855 2.19459534 -0.02124023 C4.57869275 -0.03878626 6.96159451 -0.02721062 9.34570312 -0.01367188 C11.00809964 -0.01636779 12.67049461 -0.02025104 14.33288574 -0.02526855 C17.81305997 -0.03115897 21.29282289 -0.02261569 24.77294922 -0.00390625 C29.2286325 0.01888341 33.683352 0.00575782 38.13899994 -0.01819611 C41.57060985 -0.03266666 45.00199215 -0.02804241 48.43360901 -0.01768494 C50.07621882 -0.01502111 51.71884945 -0.01827533 53.36143494 -0.02760315 C55.65948026 -0.03778998 57.95597603 -0.02224035 60.25390625 0 C62.21318054 0.00477356 62.21318054 0.00477356 64.21203613 0.00964355 C68.18602662 0.60073469 69.86152186 1.64441335 72.62695312 4.51757812 C73.18945312 7.51757812 73.18945312 7.51757812 72.62695312 10.51757812 C71.0579834 12.67272949 71.0579834 12.67272949 68.62695312 14.51757812 C66.00048687 14.91258756 63.79201445 15.06553725 61.16796875 15.03515625 C60.42278488 15.04216553 59.67760101 15.0491748 58.90983582 15.05639648 C56.45057737 15.07397854 53.99247294 15.06235386 51.53320312 15.04882812 C49.82214131 15.051523 48.11108099 15.05540538 46.40002441 15.0604248 C42.81552538 15.06632011 39.23142529 15.05775611 35.64697266 15.0390625 C31.05328873 15.01627263 26.46053958 15.02939559 21.86688995 15.05335236 C18.33409589 15.06780964 14.80152329 15.06320473 11.26872253 15.05284119 C9.57504668 15.05017369 7.8813507 15.05344448 6.18769836 15.0627594 C3.81990336 15.07292425 1.45361996 15.05742692 -0.9140625 15.03515625 C-1.61340408 15.04325317 -2.31274567 15.0513501 -3.03327942 15.05969238 C-6.37279458 15.00152851 -8.1122904 14.71545975 -10.80407715 12.67272949 C-12.37304688 10.51757812 -12.37304688 10.51757812 -12.93554688 7.51757812 C-12.37304688 4.51757812 -12.37304688 4.51757812 -10.29870605 2.36242676 C-6.61746062 0.04112404 -4.33590811 0.01056397 0 0 Z " fill="#4E5782" transform="translate(95.373046875,132.482421875)"/>
<path d="M0 0 C0.72680466 0.00090637 1.45360931 0.00181274 2.20243835 0.00274658 C2.9684436 -0.00397064 3.73444885 -0.01068787 4.52366638 -0.01760864 C7.06322157 -0.03665209 9.60251341 -0.04051593 12.14213562 -0.04266357 C13.90329092 -0.04908686 15.66444513 -0.05581486 17.42559814 -0.06283569 C21.12027969 -0.07482417 24.81486763 -0.07851489 28.50956726 -0.07733154 C33.24906147 -0.07712821 37.987957 -0.10443789 42.72730923 -0.13887596 C46.3655372 -0.16108891 50.00361979 -0.16517082 53.64190865 -0.16411209 C55.38946154 -0.16647623 57.13701796 -0.17534526 58.88450432 -0.19077682 C61.3268491 -0.21032529 63.76788601 -0.20464383 66.21025085 -0.19256592 C66.93503128 -0.20380493 67.65981171 -0.21504395 68.40655518 -0.22662354 C71.61507459 -0.1862059 73.33326945 -0.10712212 75.74749756 2.10098267 C77.32275328 5.47496396 76.73238463 7.76835049 75.77104187 11.29327393 C73.37826816 13.81087672 71.95441815 14.27132167 68.47637939 14.68768311 C66.51377419 14.70031189 66.51377419 14.70031189 64.51152039 14.7131958 C63.42541473 14.72590012 63.42541473 14.72590012 62.31736755 14.73886108 C59.92804821 14.76222642 57.53937299 14.76325342 55.14994812 14.76202393 C53.48612206 14.76912575 51.82229845 14.77682478 50.15847778 14.78509521 C46.672411 14.79853887 43.18657068 14.80010934 39.70048523 14.79425049 C35.23682659 14.78835398 30.7742555 14.81894341 26.31080723 14.85936737 C22.87492028 14.88523827 19.43929543 14.88812239 16.00332451 14.88447571 C14.35789697 14.8861675 12.7124574 14.89581588 11.06712532 14.91362 C8.76399936 14.93579995 6.4630774 14.92611595 4.15995789 14.9085083 C2.85075882 14.91056274 1.54155975 14.91261719 0.19268799 14.91473389 C-4.10809007 14.13360069 -5.62011065 12.74561987 -8.22895813 9.29327393 C-8.11374053 2.49543583 -6.8961809 0.08870663 0 0 Z " fill="#4E5884" transform="translate(91.22895812988281,99.70672607421875)"/>
<path d="M0 0 C0.74503784 -0.00671722 1.49007568 -0.01343445 2.25769043 -0.02035522 C4.72207292 -0.03936282 7.18618352 -0.04326065 9.65063477 -0.04541016 C11.36312472 -0.05183574 13.07561357 -0.05856392 14.7881012 -0.06558228 C18.37845404 -0.07756163 21.96871061 -0.08126238 25.55908203 -0.08007812 C30.16057299 -0.0798748 34.76144728 -0.10718782 39.36279202 -0.14162254 C42.89983457 -0.16385476 46.4367278 -0.16791682 49.97383308 -0.16685867 C51.67032054 -0.16921977 53.36681179 -0.17807187 55.06323051 -0.19352341 C57.43582296 -0.21311156 59.80707363 -0.2073749 62.1796875 -0.1953125 C62.88060013 -0.20655151 63.58151276 -0.21779053 64.30366516 -0.22937012 C67.63458994 -0.18631809 69.40524162 0.10786495 72.12171936 2.09823608 C73.65454102 4.29052734 73.65454102 4.29052734 73.65454102 7.85302734 C72.65454102 11.29052734 72.65454102 11.29052734 71.04576111 12.97912598 C67.738092 14.79312955 65.16027098 14.68622094 61.39501953 14.71044922 C60.30891388 14.72315353 60.30891388 14.72315353 59.2008667 14.7361145 C56.81154735 14.75947984 54.42287213 14.76050684 52.03344727 14.75927734 C50.3696212 14.76637917 48.70579759 14.7740782 47.04197693 14.78234863 C43.55591014 14.79579229 40.07006982 14.79736275 36.58398438 14.79150391 C32.12032574 14.7856074 27.65775464 14.81619683 23.19430637 14.85662079 C19.75841943 14.88249168 16.32279457 14.88537581 12.88682365 14.88172913 C11.24139612 14.88342092 9.59595655 14.8930693 7.95062447 14.91087341 C5.64749851 14.93305337 3.34657654 14.92336937 1.04345703 14.90576172 C-0.26574203 14.90781616 -1.5749411 14.90987061 -2.92381287 14.9119873 C-7.22487957 14.13080168 -8.73349396 12.74037437 -11.34545898 9.29052734 C-11.34545898 5.60302734 -11.34545898 5.60302734 -10.34545898 2.29052734 C-6.751016 -0.10576798 -4.15203706 -0.00535367 0 0 Z " fill="#4E5782" transform="translate(94.345458984375,65.70947265625)"/>
<path d="M0 0 C0.73382401 -0.00700928 1.46764801 -0.01401855 2.22370911 -0.02124023 C4.64570131 -0.03882275 7.06652162 -0.02719632 9.48852539 -0.01367188 C11.17477136 -0.01636703 12.86101582 -0.02024965 14.54725647 -0.02526855 C18.08048303 -0.03116416 21.61330489 -0.0226 25.14648438 -0.00390625 C29.67057289 0.01886618 34.19371132 0.00577197 38.71776485 -0.01819611 C42.19998805 -0.03266753 45.68198695 -0.0280417 49.164217 -0.01768494 C50.83194657 -0.01502044 52.49969664 -0.01827768 54.16740227 -0.02760315 C56.50147084 -0.03778937 58.83401352 -0.02224017 61.16796875 0 C61.85436432 -0.00809692 62.54075989 -0.01619385 63.24795532 -0.02453613 C66.70944692 0.03641472 68.63308197 0.50805247 71.61231995 2.32727051 C73.64868164 4.51757813 73.64868164 4.51757813 73.71118164 8.08007812 C72.52212814 11.92701592 72.08698281 12.63415627 68.64868164 14.51757812 C66.11117 14.81728203 63.8181595 14.948274 61.28149414 14.9375 C60.54606384 14.94596954 59.81063354 14.95443909 59.05291748 14.96316528 C56.62632879 14.98653009 54.20037421 14.98755774 51.77368164 14.98632812 C50.08503974 14.9934292 48.39640025 15.00112812 46.70776367 15.00939941 C43.17042327 15.02284238 39.63330606 15.02441349 36.09594727 15.01855469 C31.56269517 15.01265361 27.03051222 15.04326693 22.49746704 15.08367157 C19.01100901 15.10951684 15.52480967 15.11242901 12.03826904 15.10877991 C10.36689564 15.11047363 8.69551061 15.1201405 7.02423096 15.13792419 C4.687381 15.16005689 2.3527115 15.15044458 0.01586914 15.1328125 C-0.6741217 15.14607574 -1.36411255 15.15933899 -2.07501221 15.17300415 C-5.74979294 15.10856377 -7.11328969 14.75061895 -9.78051758 12.13928223 C-11.55022421 9.1855995 -12.04212314 7.88525142 -11.35131836 4.51757812 C-8.14399758 0.19162292 -5.07708391 -0.05971467 0 0 Z " fill="#4D5680" transform="translate(94.351318359375,31.482421875)"/>
</svg>
